<svg width="52" height="62" viewBox="0 0 52 62" fill="none" xmlns="http://www.w3.org/2000/svg">
<path d="M32.0953 0.0153694C32.0867 0.0239506 31.9453 0.0411148 31.7781 0.0539875C31.1565 0.10548 30.2519 0.315741 29.7975 0.51742C29.6946 0.564621 29.6046 0.598949 29.5875 0.598949C29.5746 0.598949 29.4374 0.654734 29.2831 0.72768C29.133 0.796337 28.9916 0.856411 28.9701 0.856411C28.9487 0.856411 28.9273 0.873575 28.9187 0.890739C28.9144 0.912195 28.7601 1.01089 28.5843 1.11387C27.8041 1.56443 26.9939 2.27674 26.4837 2.95473C26.4237 3.03626 26.3294 3.15641 26.2694 3.22506L26.1622 3.3495L25.8964 3.0148C25.4205 2.41406 24.5074 1.59447 23.9501 1.26406C23.8687 1.21686 23.6972 1.11816 23.5686 1.04093C23.44 0.963688 23.3028 0.890739 23.2685 0.873575C23.2342 0.860703 23.0584 0.783464 22.8827 0.701935C22.3725 0.47451 21.931 0.337196 21.2151 0.191301C20.8678 0.118355 19.8818 0.0625706 19.5174 0.096899C17.434 0.277122 15.4663 1.35417 14.2102 2.99764C14.0344 3.22506 13.8415 3.49969 13.7772 3.60696C13.7129 3.70995 13.6443 3.82581 13.6229 3.86014C13.5029 4.05752 13.1728 4.82562 13.0613 5.17748C12.9241 5.59371 12.7912 6.18588 12.7312 6.6064C12.6926 6.90677 12.6926 8.37859 12.7312 8.77337C12.7698 9.17243 12.9155 10.0006 12.997 10.3053C13.0356 10.4426 13.0956 10.6657 13.1299 10.7987C13.2071 11.0777 13.3571 11.5282 13.4943 11.8844C13.5457 12.0131 13.6143 12.1976 13.6486 12.2877C13.7558 12.5795 14.3517 13.7767 14.5789 14.1586C15.0119 14.8838 15.5263 15.6691 15.6206 15.7506C15.6549 15.7763 15.6806 15.8192 15.6806 15.8407C15.6806 15.8622 15.7192 15.9351 15.7706 15.9952C15.8178 16.0595 15.9421 16.2183 16.0364 16.3513C16.3665 16.7933 17.0739 17.6472 17.3182 17.8961C17.4426 18.0248 17.5712 18.072 17.7169 18.0463C17.8927 18.012 17.9698 17.9261 18.0813 17.6301C18.3728 16.8362 19.1102 16.2269 19.9376 16.0896C20.3662 16.0166 21.0693 16.0595 21.2965 16.1754C21.3865 16.2226 21.4851 16.2612 21.5066 16.2612C21.6052 16.2612 22.0639 16.5916 22.3125 16.8405C22.6298 17.1623 22.9255 17.7245 23.097 18.3424C23.1185 18.411 23.2814 18.8873 23.4614 19.3937C23.6415 19.9 23.8044 20.372 23.8258 20.445C23.8472 20.5136 23.9416 20.7968 24.0402 21.0672C24.1345 21.3375 24.2931 21.7924 24.3874 22.0756C24.4774 22.3588 24.5717 22.6291 24.5932 22.6763C24.6146 22.7235 24.6446 22.8008 24.6532 22.848C24.7046 23.0539 25.1976 24.4271 25.2405 24.4743C25.2619 24.5086 25.472 24.6459 25.6992 24.7832C26.2351 25.105 26.2951 25.105 26.8395 24.7789C27.0667 24.6459 27.2725 24.5129 27.2939 24.4828C27.3154 24.4571 27.7441 23.2084 28.2456 21.7108C28.7429 20.2133 29.2659 18.6556 29.4031 18.248C29.6861 17.4026 29.8061 17.1538 30.1019 16.8276C30.7621 16.1067 31.8167 15.8107 32.7855 16.0767C33.1285 16.1754 33.3685 16.3084 33.7029 16.5916C34.0459 16.8791 34.2474 17.1495 34.376 17.5056C34.496 17.8403 34.6589 17.9991 34.8518 17.9605C35.0319 17.9261 35.0533 17.9047 35.4434 17.4627C36.1979 16.6088 37.3897 14.9224 37.8484 14.0599C37.8698 14.0213 37.9041 13.9526 37.9298 13.9097C38.0842 13.6394 38.3542 13.103 38.4743 12.8284C38.5514 12.6525 38.6458 12.4465 38.68 12.3778C38.7143 12.3049 38.8087 12.056 38.8944 11.82C38.9801 11.584 39.0659 11.348 39.0873 11.2922C39.113 11.2364 39.1302 11.1463 39.1302 11.0905C39.1302 11.0305 39.1473 10.9833 39.1645 10.9833C39.1945 10.9833 39.2759 10.7129 39.3274 10.4383C39.3317 10.4125 39.3574 10.3224 39.3831 10.2452C39.4474 10.0435 39.5889 9.19389 39.6489 8.67038C39.7046 8.16404 39.6789 6.60211 39.606 6.32748C39.5846 6.23308 39.5503 6.08718 39.5374 6.00565C39.3874 5.13886 38.8815 3.95025 38.3457 3.19073C37.2354 1.61592 35.4391 0.465927 33.5786 0.122644C33.107 0.0368252 32.1468 -0.0318317 32.0953 0.0153694Z" fill="#00BAE2"/>
<path d="M43.2199 8.79485C42.6198 8.88067 42.1268 9.33122 42.0239 9.88048C42.0067 9.9663 41.9896 10.0392 41.9853 10.0392C41.9853 10.0435 41.8567 10.0521 41.7024 10.065C41.3466 10.0907 41.1751 10.1465 40.9221 10.3053C40.5106 10.5628 40.382 10.8331 40.2277 11.7557C40.2148 11.8372 40.1934 11.9445 40.1848 11.9917C40.1762 12.0389 40.1376 12.3006 40.0991 12.571C40.0562 12.8413 40.009 13.0945 39.9919 13.1288C39.9704 13.1631 39.8761 13.206 39.7732 13.2232C39.1859 13.3219 38.7272 13.8282 38.6115 14.5019C38.59 14.6307 38.5515 14.8838 38.53 15.0598C38.5086 15.2357 38.4786 15.4288 38.4657 15.4889C38.4572 15.5489 38.4357 15.6433 38.4229 15.7034C38.41 15.7635 38.3929 15.8965 38.38 16.0038C38.3714 16.1111 38.3457 16.2913 38.32 16.4114C38.2985 16.5273 38.2685 16.7118 38.2514 16.8191C38.2385 16.9264 38.2042 17.128 38.1828 17.2696C38.1614 17.4112 38.1228 17.6515 38.0971 17.806C38.0756 17.9605 38.0456 18.1321 38.037 18.1922C38.0242 18.2523 37.977 18.5612 37.9256 18.8788C37.8784 19.1963 37.8355 19.4967 37.8227 19.5439C37.8141 19.5911 37.8055 19.6597 37.8055 19.7027C37.8013 19.7413 37.5655 19.9987 37.2782 20.2819C36.991 20.5609 36.4637 21.0715 36.1079 21.4191C34.779 22.7193 34.4746 23.011 34.286 23.1655C34.1788 23.2513 34.0716 23.3414 34.0416 23.3715C34.0116 23.3972 33.8487 23.4745 33.6772 23.5431C33.4029 23.6461 33.3085 23.6633 32.927 23.6633C32.6526 23.6633 32.4683 23.6418 32.4383 23.6118C32.3997 23.5732 32.4083 23.4916 32.4769 23.2685C32.5283 23.1097 32.5883 22.8995 32.6098 22.8051C32.6355 22.7107 32.6826 22.5347 32.7169 22.4189C32.7512 22.2987 32.837 21.9898 32.9099 21.7323C32.9827 21.4706 33.0985 21.0586 33.1714 20.8097C33.2399 20.5609 33.3257 20.2519 33.36 20.1232C33.3943 19.9944 33.4929 19.6469 33.5786 19.3508C33.8358 18.4754 33.8144 17.9691 33.5015 17.4799C33.3214 17.1967 33.0899 17.0293 32.6355 16.8534C32.434 16.7762 32.2925 16.759 31.9924 16.759C31.6366 16.759 31.5809 16.7719 31.2851 16.9135C30.8693 17.1152 30.5606 17.4198 30.3677 17.8232C30.2862 17.9905 30.2091 18.1965 30.1919 18.278C30.1748 18.3596 30.1319 18.484 30.1019 18.5569C30.0719 18.6256 30.0076 18.8101 29.9562 18.9646C29.819 19.398 29.5017 20.3635 29.3646 20.7668C29.1802 21.2989 29.0302 21.7624 28.43 23.5775C28.1299 24.4743 27.8727 25.2467 27.8556 25.2939C27.8341 25.3411 27.7227 25.6801 27.6026 26.0448C27.4826 26.4095 27.3283 26.8858 27.2597 27.1004C27.1396 27.4651 27.0067 28.0101 26.9296 28.4263C26.9124 28.5207 26.8953 28.628 26.8867 28.6623C26.7238 29.5077 26.7238 31.061 26.8867 32.3955C26.9724 33.1078 27.1225 34.1506 27.2125 34.6912C27.3197 35.3177 27.3197 35.322 27.3583 35.6138C27.3754 35.7425 27.4011 35.8841 27.4097 35.9228C27.4311 35.9957 27.6412 36 31.0279 36C34.2645 36 34.6203 35.9914 34.6461 35.9313C34.6589 35.8927 34.6718 35.2619 34.6718 34.5282C34.6718 32.8246 34.7232 32.447 35.0533 31.7733L35.2677 31.3314L36.5452 30.0698C38.1356 28.5036 39.3231 27.3407 40.2662 26.4267C40.6649 26.0405 41.3423 25.384 41.7667 24.9678C42.1911 24.5515 42.8641 23.895 43.2628 23.5088C44.0602 22.7321 44.3388 22.3974 44.5532 21.9469C44.7375 21.5607 44.9433 20.9256 45.0247 20.4879C45.0633 20.2991 45.1105 20.076 45.1319 19.9944C45.1662 19.8614 45.2734 19.192 45.3291 18.75C45.3377 18.6685 45.3891 18.3596 45.4363 18.0635C45.4877 17.7674 45.5349 17.4499 45.5392 17.3555C45.5478 17.2611 45.5949 16.892 45.6421 16.5402C45.7664 15.6691 45.7664 15.6476 45.8178 15.2185C45.8393 15.0126 45.8821 14.6779 45.9079 14.4676C45.9336 14.2616 45.9593 14.0342 45.9679 13.9655C45.9893 13.7896 46.1479 12.571 46.1822 12.3135C46.2037 12.1719 46.2251 11.9745 46.3323 11.0476C46.3537 10.8331 46.3837 10.6057 46.3923 10.537C46.4137 10.3525 46.3194 9.9148 46.2122 9.70884C46.1051 9.50287 45.7707 9.23253 45.462 9.09951C45.2219 8.99652 44.8533 8.97936 44.5532 9.06089C44.3946 9.1038 44.3388 9.1038 44.266 9.0566C44.0216 8.90212 43.8844 8.84634 43.6786 8.79914C43.5586 8.77339 43.4514 8.75623 43.4472 8.75623C43.4429 8.76052 43.34 8.77768 43.2199 8.79485Z" fill="#00BAE2"/>
<path d="M8.51719 9.02656C8.43145 9.06089 8.28141 9.13813 8.1871 9.20249C8.02848 9.30548 7.99419 9.31406 7.87415 9.27115C7.63837 9.18962 7.12822 9.21107 6.87958 9.31835C6.42945 9.50287 6.05649 10.0049 6.00505 10.4855C5.99218 10.6057 6.00505 10.8503 6.03077 11.0262C6.06078 11.2021 6.09078 11.4424 6.10364 11.5626C6.11222 11.6784 6.1508 11.9702 6.1851 12.2062C6.23654 12.5881 6.29656 13.0301 6.31371 13.1502C6.31371 13.1717 6.33085 13.2876 6.348 13.4077C6.36515 13.5236 6.4123 13.8325 6.4466 14.0943C6.4809 14.3517 6.51948 14.6221 6.53234 14.695C6.54091 14.7637 6.57092 14.9868 6.59236 15.1885C6.63094 15.5232 6.69953 15.9909 6.74669 16.2612C6.75955 16.3213 6.78527 16.5316 6.81099 16.7333C6.83242 16.9349 6.87101 17.2181 6.89673 17.3683C6.91816 17.5142 6.94389 17.6859 6.95246 17.7545C6.96961 17.8704 7.11965 18.8144 7.17109 19.0933C7.18395 19.1749 7.21396 19.3508 7.2354 19.4795C7.47975 20.9428 7.71125 21.7151 8.11422 22.4232C8.29856 22.745 8.61579 23.0797 9.93188 24.3284C10.3692 24.7403 10.785 25.1351 10.8579 25.208C11.1408 25.4827 12.6669 26.9373 12.7913 27.0575C13.1385 27.3793 14.3389 28.5164 14.7804 28.9412C15.0505 29.1987 15.5521 29.6836 15.895 30.014C17.1597 31.2284 17.3783 31.473 17.5669 31.8506C17.7213 32.1595 17.7898 32.3655 17.8927 32.8118C17.9099 32.8761 17.9356 33.6185 17.9527 34.4552C17.9699 35.292 17.987 35.9828 17.9913 35.9871C17.9913 35.9957 19.6247 36 21.6181 36H25.2363L25.2577 35.8584C25.2706 35.7854 25.3006 35.5838 25.3306 35.4207C25.3563 35.2534 25.3863 35.0603 25.3906 34.9916C25.3992 34.9187 25.442 34.614 25.4935 34.305C25.5406 33.9961 25.5921 33.6614 25.6006 33.5541C25.6135 33.4468 25.6478 33.198 25.6735 32.9963C25.7678 32.2411 25.8064 31.6575 25.8193 30.6791C25.8321 29.5978 25.8021 29.2459 25.6006 28.1474C25.5706 28.0015 25.2834 26.9974 25.232 26.8601C25.1848 26.7399 24.426 24.5472 24.276 24.0924C24.2203 23.925 23.9973 23.2814 23.783 22.6549C23.5686 22.0284 23.3629 21.4405 23.3329 21.3461C23.2343 21.0543 22.6855 19.4709 22.5869 19.2006C22.5355 19.059 22.4283 18.75 22.3511 18.514C22.2697 18.278 22.1539 17.9777 22.0939 17.8446C21.8667 17.3726 21.2666 16.9092 20.7821 16.8405C20.675 16.8277 20.5549 16.8105 20.5078 16.8019C20.3577 16.7805 19.8347 16.9049 19.5989 17.0165C19.1231 17.2396 18.7673 17.7588 18.7115 18.3038C18.6858 18.5655 18.7673 19.0161 18.9216 19.4795C18.9602 19.5868 19.0159 19.767 19.0459 19.8872C19.1102 20.1318 19.496 21.4749 19.7318 22.2687C19.8176 22.5648 19.9162 22.8995 19.9462 23.0196C19.9805 23.1355 20.0362 23.3286 20.0705 23.4487C20.1048 23.5646 20.1262 23.6719 20.1134 23.6847C20.1005 23.6976 19.8862 23.7148 19.6375 23.7191C19.2517 23.7319 19.1488 23.7234 18.9216 23.6375C18.4286 23.4573 18.45 23.4788 16.7738 21.8782C14.6861 19.8872 14.6947 19.9 14.6775 19.7584C14.669 19.6855 14.6218 19.398 14.5704 19.1148C14.5232 18.8316 14.4718 18.5226 14.4589 18.4282C14.4417 18.3338 14.4074 18.1193 14.3732 17.9562C14.3088 17.6086 14.2617 17.3555 14.2445 17.2053C14.236 17.1452 14.206 16.9736 14.1802 16.8191C14.1545 16.6646 14.1159 16.4157 14.0902 16.2612C14.0431 15.948 14.0388 15.9223 13.9187 15.24C13.8716 14.9696 13.8287 14.6993 13.8201 14.6392C13.7473 13.9999 13.25 13.4764 12.6112 13.3605C12.4355 13.3262 12.3926 13.279 12.3669 13.0516C12.3497 12.94 12.3283 12.7726 12.3154 12.6782C12.3026 12.5838 12.264 12.3607 12.2297 12.1848C12.1997 12.0088 12.1568 11.7771 12.1397 11.6698C12.1225 11.5626 12.1054 11.4682 12.1011 11.4553C12.0968 11.4424 12.0796 11.3652 12.0625 11.2836C11.9253 10.6958 11.3852 10.2753 10.7035 10.2238L10.4163 10.198L10.3649 10.0221C10.1677 9.36555 9.6961 9.00081 9.01448 8.97936C8.80013 8.97078 8.6115 8.99223 8.51719 9.02656Z" fill="#00BAE2"/>
<rect x="24.7622" y="6.03841" width="3.0192" height="9.92022" fill="#F1F1F2"/>
<rect x="21.3116" y="12.5081" width="3.0192" height="9.92022" transform="rotate(-90 21.3116 12.5081)" fill="#F1F1F2"/>
<path d="M0.372 43.68C0.372 43.16 0.464 42.652 0.648 42.156C0.84 41.652 1.116 41.196 1.476 40.788C1.836 40.372 2.276 40.044 2.796 39.804C3.316 39.556 3.908 39.432 4.572 39.432C5.356 39.432 6.032 39.604 6.6 39.948C7.176 40.292 7.604 40.74 7.884 41.292L6.612 42.168C6.468 41.848 6.28 41.596 6.048 41.412C5.816 41.22 5.568 41.088 5.304 41.016C5.04 40.936 4.78 40.896 4.524 40.896C4.108 40.896 3.744 40.98 3.432 41.148C3.128 41.316 2.872 41.536 2.664 41.808C2.456 42.08 2.3 42.384 2.196 42.72C2.1 43.056 2.052 43.392 2.052 43.728C2.052 44.104 2.112 44.468 2.232 44.82C2.352 45.164 2.52 45.472 2.736 45.744C2.96 46.008 3.224 46.22 3.528 46.38C3.84 46.532 4.18 46.608 4.548 46.608C4.812 46.608 5.08 46.564 5.352 46.476C5.624 46.388 5.876 46.248 6.108 46.056C6.34 45.864 6.52 45.616 6.648 45.312L8.004 46.092C7.836 46.516 7.56 46.876 7.176 47.172C6.8 47.468 6.376 47.692 5.904 47.844C5.432 47.996 4.964 48.072 4.5 48.072C3.892 48.072 3.336 47.948 2.832 47.7C2.328 47.444 1.892 47.108 1.524 46.692C1.164 46.268 0.88 45.796 0.672 45.276C0.472 44.748 0.372 44.216 0.372 43.68ZM8.52656 46.14C8.52656 45.732 8.63856 45.376 8.86256 45.072C9.09456 44.76 9.41456 44.52 9.82256 44.352C10.2306 44.184 10.6986 44.1 11.2266 44.1C11.4906 44.1 11.7586 44.12 12.0306 44.16C12.3026 44.2 12.5386 44.264 12.7386 44.352V44.016C12.7386 43.616 12.6186 43.308 12.3786 43.092C12.1466 42.876 11.7986 42.768 11.3346 42.768C10.9906 42.768 10.6626 42.828 10.3506 42.948C10.0386 43.068 9.71056 43.244 9.36656 43.476L8.85056 42.42C9.26656 42.148 9.69056 41.944 10.1226 41.808C10.5626 41.672 11.0226 41.604 11.5026 41.604C12.3986 41.604 13.0946 41.828 13.5906 42.276C14.0946 42.724 14.3466 43.364 14.3466 44.196V46.2C14.3466 46.368 14.3746 46.488 14.4306 46.56C14.4946 46.632 14.5946 46.676 14.7306 46.692V48C14.5866 48.024 14.4546 48.044 14.3346 48.06C14.2226 48.076 14.1266 48.084 14.0466 48.084C13.7266 48.084 13.4826 48.012 13.3146 47.868C13.1546 47.724 13.0546 47.548 13.0146 47.34L12.9786 47.016C12.7066 47.368 12.3666 47.64 11.9586 47.832C11.5506 48.024 11.1346 48.12 10.7106 48.12C10.2946 48.12 9.91856 48.036 9.58256 47.868C9.25456 47.692 8.99456 47.456 8.80256 47.16C8.61856 46.856 8.52656 46.516 8.52656 46.14ZM12.4386 46.464C12.5266 46.368 12.5986 46.272 12.6546 46.176C12.7106 46.08 12.7386 45.992 12.7386 45.912V45.276C12.5466 45.196 12.3386 45.136 12.1146 45.096C11.8906 45.048 11.6786 45.024 11.4786 45.024C11.0626 45.024 10.7186 45.116 10.4466 45.3C10.1826 45.476 10.0506 45.712 10.0506 46.008C10.0506 46.168 10.0946 46.32 10.1826 46.464C10.2706 46.608 10.3986 46.724 10.5666 46.812C10.7346 46.9 10.9346 46.944 11.1666 46.944C11.4066 46.944 11.6426 46.9 11.8746 46.812C12.1066 46.716 12.2946 46.6 12.4386 46.464ZM19.5932 43.104C19.1052 43.104 18.6692 43.2 18.2852 43.392C17.9012 43.576 17.6252 43.844 17.4572 44.196V48H15.8492V41.712H17.3252V43.056C17.5492 42.624 17.8332 42.284 18.1772 42.036C18.5212 41.788 18.8852 41.652 19.2692 41.628C19.3572 41.628 19.4252 41.628 19.4732 41.628C19.5212 41.628 19.5612 41.632 19.5932 41.64V43.104ZM23.3238 48.12C22.8198 48.12 22.3638 48.036 21.9558 47.868C21.5478 47.692 21.1998 47.456 20.9118 47.16C20.6238 46.856 20.3998 46.512 20.2398 46.128C20.0878 45.736 20.0118 45.324 20.0118 44.892C20.0118 44.292 20.1438 43.744 20.4078 43.248C20.6798 42.752 21.0638 42.356 21.5598 42.06C22.0638 41.756 22.6558 41.604 23.3358 41.604C24.0238 41.604 24.6118 41.756 25.0998 42.06C25.5878 42.356 25.9598 42.752 26.2158 43.248C26.4798 43.736 26.6118 44.264 26.6118 44.832C26.6118 44.928 26.6078 45.028 26.5998 45.132C26.5918 45.228 26.5838 45.308 26.5758 45.372H21.7158C21.7478 45.692 21.8398 45.972 21.9918 46.212C22.1518 46.452 22.3518 46.636 22.5918 46.764C22.8398 46.884 23.1038 46.944 23.3838 46.944C23.7038 46.944 24.0038 46.868 24.2838 46.716C24.5718 46.556 24.7678 46.348 24.8718 46.092L26.2518 46.476C26.0998 46.796 25.8798 47.08 25.5918 47.328C25.3118 47.576 24.9798 47.772 24.5958 47.916C24.2118 48.052 23.7878 48.12 23.3238 48.12ZM21.6798 44.352H24.9678C24.9358 44.032 24.8438 43.756 24.6918 43.524C24.5478 43.284 24.3558 43.1 24.1158 42.972C23.8758 42.836 23.6078 42.768 23.3118 42.768C23.0238 42.768 22.7598 42.836 22.5198 42.972C22.2878 43.1 22.0958 43.284 21.9438 43.524C21.7998 43.756 21.7118 44.032 21.6798 44.352ZM34.6251 48V42.408L32.4411 46.572H31.5171L29.3331 42.408V48H27.6771V39.48H29.4531L31.9731 44.328L34.5171 39.48H36.2811V48H34.6251ZM40.7144 48.12C40.2104 48.12 39.7544 48.036 39.3464 47.868C38.9384 47.692 38.5904 47.456 38.3024 47.16C38.0144 46.856 37.7904 46.512 37.6304 46.128C37.4784 45.736 37.4024 45.324 37.4024 44.892C37.4024 44.292 37.5344 43.744 37.7984 43.248C38.0704 42.752 38.4544 42.356 38.9504 42.06C39.4544 41.756 40.0464 41.604 40.7264 41.604C41.4144 41.604 42.0024 41.756 42.4904 42.06C42.9784 42.356 43.3504 42.752 43.6064 43.248C43.8704 43.736 44.0024 44.264 44.0024 44.832C44.0024 44.928 43.9984 45.028 43.9904 45.132C43.9824 45.228 43.9744 45.308 43.9664 45.372H39.1064C39.1384 45.692 39.2304 45.972 39.3824 46.212C39.5424 46.452 39.7424 46.636 39.9824 46.764C40.2304 46.884 40.4944 46.944 40.7744 46.944C41.0944 46.944 41.3944 46.868 41.6744 46.716C41.9624 46.556 42.1584 46.348 42.2624 46.092L43.6424 46.476C43.4904 46.796 43.2704 47.08 42.9824 47.328C42.7024 47.576 42.3704 47.772 41.9864 47.916C41.6024 48.052 41.1784 48.12 40.7144 48.12ZM39.0704 44.352H42.3584C42.3264 44.032 42.2344 43.756 42.0824 43.524C41.9384 43.284 41.7464 43.1 41.5064 42.972C41.2664 42.836 40.9984 42.768 40.7024 42.768C40.4144 42.768 40.1504 42.836 39.9104 42.972C39.6784 43.1 39.4864 43.284 39.3344 43.524C39.1904 43.756 39.1024 44.032 39.0704 44.352ZM44.598 44.856C44.598 44.248 44.718 43.7 44.958 43.212C45.198 42.716 45.53 42.324 45.954 42.036C46.378 41.748 46.862 41.604 47.406 41.604C47.87 41.604 48.286 41.72 48.654 41.952C49.03 42.176 49.322 42.464 49.53 42.816V39.24H51.138V46.2C51.138 46.368 51.166 46.488 51.222 46.56C51.278 46.632 51.374 46.676 51.51 46.692V48C51.23 48.056 51.002 48.084 50.826 48.084C50.538 48.084 50.298 48.012 50.106 47.868C49.922 47.724 49.818 47.536 49.794 47.304L49.77 46.908C49.538 47.3 49.222 47.6 48.822 47.808C48.43 48.016 48.018 48.12 47.586 48.12C47.154 48.12 46.754 48.036 46.386 47.868C46.026 47.7 45.71 47.468 45.438 47.172C45.174 46.876 44.966 46.532 44.814 46.14C44.67 45.74 44.598 45.312 44.598 44.856ZM49.53 45.696V44.196C49.45 43.964 49.322 43.756 49.146 43.572C48.97 43.388 48.774 43.244 48.558 43.14C48.342 43.028 48.126 42.972 47.91 42.972C47.662 42.972 47.438 43.024 47.238 43.128C47.038 43.232 46.862 43.372 46.71 43.548C46.566 43.724 46.454 43.928 46.374 44.16C46.302 44.392 46.266 44.636 46.266 44.892C46.266 45.148 46.306 45.392 46.386 45.624C46.474 45.848 46.598 46.044 46.758 46.212C46.918 46.38 47.102 46.512 47.31 46.608C47.526 46.704 47.758 46.752 48.006 46.752C48.158 46.752 48.31 46.728 48.462 46.68C48.622 46.624 48.77 46.552 48.906 46.464C49.05 46.368 49.174 46.256 49.278 46.128C49.39 45.992 49.474 45.848 49.53 45.696Z" fill="#F1F1F2"/>
<path d="M4.708 50.48H5.416L8.956 59H8.068L6.964 56.336H3.136L2.044 59H1.144L4.708 50.48ZM6.772 55.676L5.056 51.464L3.316 55.676H6.772ZM11.9793 59.12C11.4673 59.12 10.9913 59.036 10.5513 58.868C10.1113 58.7 9.73134 58.444 9.41134 58.1L9.74734 57.524C10.0993 57.852 10.4513 58.092 10.8033 58.244C11.1633 58.388 11.5433 58.46 11.9433 58.46C12.4313 58.46 12.8273 58.364 13.1313 58.172C13.4353 57.972 13.5873 57.688 13.5873 57.32C13.5873 57.072 13.5113 56.884 13.3593 56.756C13.2153 56.62 13.0033 56.512 12.7233 56.432C12.4513 56.344 12.1233 56.252 11.7393 56.156C11.3073 56.036 10.9433 55.912 10.6473 55.784C10.3593 55.648 10.1393 55.48 9.98734 55.28C9.84334 55.072 9.77134 54.804 9.77134 54.476C9.77134 54.068 9.87134 53.732 10.0713 53.468C10.2793 53.196 10.5593 52.992 10.9113 52.856C11.2713 52.712 11.6713 52.64 12.1113 52.64C12.5913 52.64 13.0153 52.716 13.3833 52.868C13.7513 53.02 14.0513 53.232 14.2833 53.504L13.8873 54.056C13.6633 53.8 13.3953 53.612 13.0833 53.492C12.7793 53.364 12.4393 53.3 12.0633 53.3C11.8073 53.3 11.5633 53.336 11.3313 53.408C11.0993 53.472 10.9073 53.584 10.7553 53.744C10.6113 53.896 10.5393 54.108 10.5393 54.38C10.5393 54.604 10.5953 54.78 10.7073 54.908C10.8193 55.028 10.9873 55.132 11.2113 55.22C11.4353 55.3 11.7113 55.388 12.0393 55.484C12.5113 55.612 12.9233 55.744 13.2753 55.88C13.6273 56.008 13.8993 56.176 14.0913 56.384C14.2833 56.592 14.3793 56.884 14.3793 57.26C14.3793 57.844 14.1593 58.3 13.7193 58.628C13.2793 58.956 12.6993 59.12 11.9793 59.12ZM17.7801 59.12C17.2681 59.12 16.7921 59.036 16.3521 58.868C15.9121 58.7 15.5321 58.444 15.2121 58.1L15.5481 57.524C15.9001 57.852 16.2521 58.092 16.6041 58.244C16.9641 58.388 17.3441 58.46 17.7441 58.46C18.2321 58.46 18.6281 58.364 18.9321 58.172C19.2361 57.972 19.3881 57.688 19.3881 57.32C19.3881 57.072 19.3121 56.884 19.1601 56.756C19.0161 56.62 18.8041 56.512 18.5241 56.432C18.2521 56.344 17.9241 56.252 17.5401 56.156C17.1081 56.036 16.7441 55.912 16.4481 55.784C16.1601 55.648 15.9401 55.48 15.7881 55.28C15.6441 55.072 15.5721 54.804 15.5721 54.476C15.5721 54.068 15.6721 53.732 15.8721 53.468C16.0801 53.196 16.3601 52.992 16.7121 52.856C17.0721 52.712 17.4721 52.64 17.9121 52.64C18.3921 52.64 18.8161 52.716 19.1841 52.868C19.5521 53.02 19.8521 53.232 20.0841 53.504L19.6881 54.056C19.4641 53.8 19.1961 53.612 18.8841 53.492C18.5801 53.364 18.2401 53.3 17.8641 53.3C17.6081 53.3 17.3641 53.336 17.1321 53.408C16.9001 53.472 16.7081 53.584 16.5561 53.744C16.4121 53.896 16.3401 54.108 16.3401 54.38C16.3401 54.604 16.3961 54.78 16.5081 54.908C16.6201 55.028 16.7881 55.132 17.0121 55.22C17.2361 55.3 17.5121 55.388 17.8401 55.484C18.3121 55.612 18.7241 55.744 19.0761 55.88C19.4281 56.008 19.7001 56.176 19.8921 56.384C20.0841 56.592 20.1801 56.884 20.1801 57.26C20.1801 57.844 19.9601 58.3 19.5201 58.628C19.0801 58.956 18.5001 59.12 17.7801 59.12ZM21.5289 59V52.748H22.3449V59H21.5289ZM21.5289 51.44V50.24H22.3449V51.44H21.5289ZM26.1942 59.12C25.6822 59.12 25.2062 59.036 24.7662 58.868C24.3262 58.7 23.9462 58.444 23.6262 58.1L23.9622 57.524C24.3142 57.852 24.6662 58.092 25.0182 58.244C25.3782 58.388 25.7582 58.46 26.1582 58.46C26.6462 58.46 27.0422 58.364 27.3462 58.172C27.6502 57.972 27.8022 57.688 27.8022 57.32C27.8022 57.072 27.7262 56.884 27.5742 56.756C27.4302 56.62 27.2182 56.512 26.9382 56.432C26.6662 56.344 26.3382 56.252 25.9542 56.156C25.5222 56.036 25.1582 55.912 24.8622 55.784C24.5742 55.648 24.3542 55.48 24.2022 55.28C24.0582 55.072 23.9862 54.804 23.9862 54.476C23.9862 54.068 24.0862 53.732 24.2862 53.468C24.4942 53.196 24.7742 52.992 25.1262 52.856C25.4862 52.712 25.8862 52.64 26.3262 52.64C26.8062 52.64 27.2302 52.716 27.5982 52.868C27.9662 53.02 28.2662 53.232 28.4982 53.504L28.1022 54.056C27.8782 53.8 27.6102 53.612 27.2982 53.492C26.9942 53.364 26.6542 53.3 26.2782 53.3C26.0222 53.3 25.7782 53.336 25.5462 53.408C25.3142 53.472 25.1222 53.584 24.9702 53.744C24.8262 53.896 24.7542 54.108 24.7542 54.38C24.7542 54.604 24.8102 54.78 24.9222 54.908C25.0342 55.028 25.2022 55.132 25.4262 55.22C25.6502 55.3 25.9262 55.388 26.2542 55.484C26.7262 55.612 27.1382 55.744 27.4902 55.88C27.8422 56.008 28.1142 56.176 28.3062 56.384C28.4982 56.592 28.5942 56.884 28.5942 57.26C28.5942 57.844 28.3742 58.3 27.9342 58.628C27.4942 58.956 26.9142 59.12 26.1942 59.12ZM32.943 58.7C32.879 58.724 32.779 58.768 32.643 58.832C32.507 58.896 32.343 58.952 32.151 59C31.959 59.048 31.751 59.072 31.527 59.072C31.295 59.072 31.075 59.028 30.867 58.94C30.667 58.852 30.507 58.72 30.387 58.544C30.267 58.36 30.207 58.136 30.207 57.872V53.396H29.343V52.748H30.207V50.636H31.023V52.748H32.463V53.396H31.023V57.644C31.039 57.868 31.119 58.036 31.263 58.148C31.415 58.26 31.587 58.316 31.779 58.316C32.003 58.316 32.207 58.28 32.391 58.208C32.575 58.128 32.687 58.072 32.727 58.04L32.943 58.7ZM33.4585 57.2C33.4585 56.808 33.5705 56.472 33.7945 56.192C34.0185 55.904 34.3265 55.684 34.7185 55.532C35.1185 55.372 35.5785 55.292 36.0985 55.292C36.4025 55.292 36.7185 55.316 37.0465 55.364C37.3745 55.412 37.6665 55.484 37.9225 55.58V55.052C37.9225 54.524 37.7665 54.104 37.4545 53.792C37.1425 53.48 36.7105 53.324 36.1585 53.324C35.8225 53.324 35.4905 53.388 35.1625 53.516C34.8425 53.636 34.5065 53.816 34.1545 54.056L33.8425 53.48C34.2505 53.2 34.6505 52.992 35.0425 52.856C35.4345 52.712 35.8345 52.64 36.2425 52.64C37.0105 52.64 37.6185 52.86 38.0665 53.3C38.5145 53.74 38.7385 54.348 38.7385 55.124V58.016C38.7385 58.128 38.7625 58.212 38.8105 58.268C38.8585 58.316 38.9345 58.344 39.0385 58.352V59C38.9505 59.008 38.8745 59.016 38.8105 59.024C38.7465 59.032 38.6985 59.032 38.6665 59.024C38.4665 59.016 38.3145 58.952 38.2105 58.832C38.1065 58.712 38.0505 58.584 38.0425 58.448L38.0305 57.992C37.7505 58.352 37.3865 58.632 36.9385 58.832C36.4905 59.024 36.0345 59.12 35.5705 59.12C35.1705 59.12 34.8065 59.036 34.4785 58.868C34.1585 58.692 33.9065 58.46 33.7225 58.172C33.5465 57.876 33.4585 57.552 33.4585 57.2ZM37.6465 57.68C37.7345 57.568 37.8025 57.46 37.8505 57.356C37.8985 57.252 37.9225 57.16 37.9225 57.08V56.168C37.6505 56.064 37.3665 55.984 37.0705 55.928C36.7825 55.872 36.4905 55.844 36.1945 55.844C35.6105 55.844 35.1385 55.96 34.7785 56.192C34.4185 56.424 34.2385 56.74 34.2385 57.14C34.2385 57.372 34.2985 57.592 34.4185 57.8C34.5385 58 34.7145 58.168 34.9465 58.304C35.1785 58.432 35.4505 58.496 35.7625 58.496C36.1545 58.496 36.5185 58.42 36.8545 58.268C37.1985 58.116 37.4625 57.92 37.6465 57.68ZM45.7576 59H44.9416V55.508C44.9416 54.772 44.8336 54.236 44.6176 53.9C44.4016 53.556 44.0616 53.384 43.5976 53.384C43.2776 53.384 42.9616 53.464 42.6496 53.624C42.3376 53.776 42.0616 53.988 41.8216 54.26C41.5896 54.524 41.4216 54.828 41.3176 55.172V59H40.5016V52.748H41.2456V54.164C41.4136 53.86 41.6336 53.596 41.9056 53.372C42.1776 53.14 42.4856 52.96 42.8296 52.832C43.1736 52.704 43.5296 52.64 43.8976 52.64C44.2416 52.64 44.5336 52.704 44.7736 52.832C45.0136 52.96 45.2056 53.144 45.3496 53.384C45.4936 53.616 45.5976 53.9 45.6616 54.236C45.7256 54.564 45.7576 54.932 45.7576 55.34V59ZM50.4391 58.7C50.3751 58.724 50.2751 58.768 50.1391 58.832C50.0031 58.896 49.8391 58.952 49.6471 59C49.4551 59.048 49.2471 59.072 49.0231 59.072C48.7911 59.072 48.5711 59.028 48.3631 58.94C48.1631 58.852 48.0031 58.72 47.8831 58.544C47.7631 58.36 47.7031 58.136 47.7031 57.872V53.396H46.8391V52.748H47.7031V50.636H48.5191V52.748H49.9591V53.396H48.5191V57.644C48.5351 57.868 48.6151 58.036 48.7591 58.148C48.9111 58.26 49.0831 58.316 49.2751 58.316C49.4991 58.316 49.7031 58.28 49.8871 58.208C50.0711 58.128 50.1831 58.072 50.2231 58.04L50.4391 58.7Z" fill="#F1F1F2"/>
</svg>
